# xmcd
#
# Track frame offsets:
#	150
#	12605
#	25874
#	37439
#	51802
#	62535
#	75006
#	85242
#	96839
#	108647
#	121747
#	133386
#	151569
#	162077
#	180100
#	193393
#	208260
#	221502
#
# Disc length: 3102
#
# Revision: 2
# Processed by: cddbd v1.5.1PL0 Copyright (c) Steve Scherf et al.
# Submitted via: EasyCDDAExtractor 4.6.9.1
# Normalized: r0:TDELIM( - ),TSWAP
#
DISCID=f00c1c12
DTITLE=Various Artist - Queens Of Country
DYEAR=1900
DGENRE=Country
TTITLE0=Patsy Cline - I Fall To Pieces
TTITLE1=Loretta Lynn - Coal Miner's Daughter
TTITLE2=Crystal Gayle - Don't It Make My Brown Eyes Blue
TTITLE3=Jeannie C. Riley - Harper Valley P.T.A.
TTITLE4=Reba McEntire - Can't Even Get The Blues
TTITLE5=Lynn Anderson - Rose Garden
TTITLE6=Connie Smith - Once A Day
TTITLE7=Skeeter\tDavis - The End Of The World
TTITLE8=Tammy Wynette - Stand By Your Man
TTITLE9=Dolly Parton - Here You Come Again
TTITLE10=Kitty Wells - Heartbreak, U.S.A.
TTITLE11=Juice Newton - The Sweetest Thing I've Ever Known
TTITLE12=Tanya Tucker - Would You Lay With Me (In A Field Of Stone)
TTITLE13=Janie Frickie - Tell Me A Lie
TTITLE14=Dottie West - A Lesson In Leavin'
TTITLE15=Jessi Colter - I'm Not Lisa
TTITLE16=Patti Page - Tennessee Waltz
TTITLE17=Debby Boone - Are You On The Road To Lovin' Me Again
EXTD=
EXTT0=
EXTT1=
EXTT2=
EXTT3=
EXTT4=
EXTT5=
EXTT6=
EXTT7=
EXTT8=
EXTT9=
EXTT10=
EXTT11=
EXTT12=
EXTT13=
EXTT14=
EXTT15=
EXTT16=
EXTT17=
PLAYORDER=
